<svg width="74" height="74" viewBox="0 0 74 74" fill="none" xmlns="http://www.w3.org/2000/svg">
<path fill-rule="evenodd" clip-rule="evenodd" d="M37.3429 73.0835C57.4614 73.0835 73.7707 56.7742 73.7707 36.6556C73.7707 16.5371 57.4614 0.227783 37.3429 0.227783C17.2243 0.227783 0.915039 16.5371 0.915039 36.6556C0.915039 56.7742 17.2243 73.0835 37.3429 73.0835ZM13.375 55.5446H33.8311V54.7584C31.8031 54.5761 30.3903 54.2343 29.5928 53.733C28.18 52.8444 27.4736 51.6139 27.4736 50.0416C27.4736 49.1074 27.7926 47.8541 28.4307 46.2819L29.0117 44.8463L31.2834 39.6994H44.7852H46.3606C47.5847 39.6994 48.6861 40.4432 49.1434 41.5787L49.9639 43.6158C50.9893 46.1224 51.502 48.0934 51.502 49.5289C51.502 50.372 51.3197 51.1582 50.9551 51.8873C50.5677 52.6165 50.055 53.2089 49.417 53.6647C48.5283 54.2799 47.389 54.6445 45.999 54.7584V55.5446H61.3115V54.7584C60.1038 54.6901 59.0443 54.3938 58.1328 53.8698C57.2214 53.3457 56.3327 52.5026 55.4668 51.3405C54.7376 50.4062 54.0312 49.2099 53.3477 47.7516C52.7271 46.4505 50.1282 40.1556 48.7332 36.652C48.4278 35.8849 47.6876 35.3785 46.862 35.3785H46.7852H32.8398L40.0176 17.6735L43.4428 8.88928H38.1262C36.9125 8.88928 35.8184 9.62057 35.3543 10.742L21.2529 44.8121C20.1364 47.5237 19.2477 49.4606 18.5869 50.6227C18.5012 50.9115 16.3805 53.8534 13.375 54.7584V55.5446Z" fill="#E24E42"/>
</svg>
