<svg width="38" height="38" viewBox="0 0 38 38" fill="none" xmlns="http://www.w3.org/2000/svg">
<path fill-rule="evenodd" clip-rule="evenodd" d="M18.7375 37.607C29.0595 37.607 37.4271 29.2394 37.4271 18.9174C37.4271 8.59541 29.0595 0.227783 18.7375 0.227783C8.41548 0.227783 0.0478516 8.59541 0.0478516 18.9174C0.0478516 29.2394 8.41548 37.607 18.7375 37.607ZM6.44054 28.6085H16.9357V28.2052C15.8952 28.1117 15.1704 27.9363 14.7612 27.6791C14.0364 27.2232 13.674 26.5919 13.674 25.7852C13.674 25.3059 13.8376 24.6629 14.165 23.8562L14.4631 23.1197L15.6286 20.479H22.5558C23.6722 20.479 24.6767 21.1574 25.0938 22.193L25.2128 22.4884C25.7388 23.7744 26.0019 24.7856 26.0019 25.5221C26.0019 25.9547 25.9084 26.358 25.7213 26.7321C25.5226 27.1063 25.2595 27.4102 24.9322 27.644C24.4762 27.9597 23.8917 28.1467 23.1786 28.2052V28.6085H31.0348V28.2052C30.4152 28.1701 29.8715 28.0181 29.4039 27.7492C28.9363 27.4804 28.4803 27.0478 28.0361 26.4516C27.662 25.9722 27.2996 25.3585 26.9488 24.6103C26.6326 23.9473 25.3151 20.7568 24.596 18.9523C24.4304 18.5367 24.0293 18.2622 23.5819 18.2622H16.4271L20.1097 9.17843L21.8671 4.67164H20.1157C18.9021 4.67164 17.8079 5.40292 17.3438 6.52435L10.4824 23.1022C9.90953 24.4934 9.45359 25.4871 9.11455 26.0833C9.07058 26.2315 7.98255 27.7409 6.44054 28.2052V28.6085Z" fill="#E24E42"/>
</svg>
