<svg width="49" height="48" viewBox="0 0 49 48" fill="none" xmlns="http://www.w3.org/2000/svg">
<path d="M20.5713 47.4075H0.115234V46.6213C3.12077 45.7164 5.24143 42.7744 5.32715 42.4856C5.98796 41.3235 6.87663 39.3866 7.99316 36.675L22.0945 2.60491C22.5587 1.48348 23.6528 0.752197 24.8665 0.752197H30.1831L26.7578 9.53638L19.5801 27.2415H33.5254H33.6022C34.4279 27.2415 35.168 27.7478 35.4735 28.5149C36.8684 32.0185 39.4674 38.3134 40.0879 39.6145C40.7715 41.0728 41.4779 42.2691 42.207 43.2034C43.0729 44.3655 43.9616 45.2086 44.873 45.7327C45.7845 46.2568 46.8441 46.553 48.0518 46.6213V47.4075H32.7393V46.6213C34.1292 46.5074 35.2686 46.1428 36.1572 45.5276C36.7952 45.0719 37.3079 44.4794 37.6953 43.7502C38.0599 43.0211 38.2422 42.2349 38.2422 41.3918C38.2422 39.9563 37.7295 37.9853 36.7041 35.4788L35.8836 33.4416C35.4263 32.3061 34.325 31.5623 33.1008 31.5623H31.5254H18.0236L15.752 36.7092L15.1709 38.1448C14.5329 39.717 14.2139 40.9703 14.2139 41.9045C14.2139 43.4768 14.9202 44.7073 16.333 45.5959C17.1305 46.0972 18.5433 46.439 20.5713 46.6213V47.4075Z" fill="#E24E42"/>
</svg>
