<svg width="91" height="151" viewBox="0 0 91 151" fill="none" xmlns="http://www.w3.org/2000/svg">
<path d="M89.8553 3.29554C90.6303 3.00278 91.0212 2.1372 90.7284 1.36223C90.4356 0.587263 89.5701 0.196359 88.7951 0.489126L89.8553 3.29554ZM19.273 150.823C20.0934 150.939 20.852 150.367 20.9676 149.547L22.8504 136.179C22.966 135.359 22.3946 134.6 21.5743 134.484C20.754 134.369 19.9953 134.94 19.8798 135.76L18.2061 147.643L6.3234 145.97C5.50307 145.854 4.74439 146.425 4.62885 147.246C4.51331 148.066 5.08465 148.825 5.90498 148.94L19.273 150.823ZM88.7951 0.489126C53.4241 13.8515 31.2011 29.8476 17.8363 46.4325C4.45315 63.0401 0.0243887 80.1508 0.0966722 95.5714C0.168808 110.96 4.721 124.621 9.23019 134.408C11.4873 139.307 13.7408 143.251 15.4334 145.976C16.28 147.338 16.987 148.397 17.4851 149.118C17.7341 149.479 17.931 149.756 18.067 149.944C18.135 150.038 18.1878 150.11 18.2244 150.16C18.2426 150.185 18.2568 150.204 18.2668 150.217C18.2718 150.224 18.2757 150.229 18.2786 150.233C18.2801 150.235 18.2814 150.237 18.2821 150.238C18.2832 150.239 18.284 150.24 19.4822 149.338C20.6805 148.435 20.6807 148.436 20.6807 148.436C20.6804 148.435 20.6801 148.435 20.6794 148.434C20.678 148.432 20.6755 148.429 20.6719 148.424C20.6649 148.414 20.6536 148.399 20.6383 148.379C20.6077 148.337 20.5608 148.273 20.4988 148.187C20.3749 148.016 20.1904 147.757 19.954 147.414C19.4811 146.729 18.8008 145.711 17.9816 144.393C16.3429 141.755 14.1515 137.921 11.9549 133.153C7.55672 123.606 3.16612 110.38 3.09664 95.5573C3.02731 80.7663 7.2581 64.3405 20.1723 48.3149C33.1048 32.2663 54.8169 16.5323 89.8553 3.29554L88.7951 0.489126Z" fill="#E56055"/>
</svg>
