<svg width="64" height="122" viewBox="0 0 64 122" fill="none" xmlns="http://www.w3.org/2000/svg">
<path d="M62.6569 3.80499C63.4798 3.7097 64.0697 2.96534 63.9744 2.14241C63.8791 1.31949 63.1348 0.729612 62.3118 0.824896L62.6569 3.80499ZM36.8365 119.59C37.6597 119.497 38.2516 118.754 38.1585 117.931L36.6421 104.516C36.5491 103.693 35.8063 103.101 34.9831 103.194C34.1599 103.287 33.568 104.03 33.6611 104.853L35.009 116.777L23.0849 118.125C22.2618 118.218 21.6699 118.961 21.7629 119.784C21.856 120.607 22.5987 121.199 23.4219 121.106L36.8365 119.59ZM62.3118 0.824896C24.6787 5.18229 4.99648 24.5161 1.44657 48.2501C-2.07749 71.8113 10.4123 99.0948 35.7332 119.272L37.6028 116.926C12.8547 97.205 1.09235 70.8989 4.41356 48.6939C7.70891 26.6619 25.9694 8.05289 62.6569 3.80499L62.3118 0.824896Z" fill="#E56055"/>
</svg>
