<svg width="26" height="90" viewBox="0 0 26 90" fill="none" xmlns="http://www.w3.org/2000/svg">
<path d="M25.3622 2.96294C25.9983 2.43231 26.0839 1.48643 25.5533 0.850246C25.0226 0.214067 24.0768 0.128501 23.4406 0.65913L25.3622 2.96294ZM18.3434 89.8307C19.1681 89.9087 19.8999 89.3033 19.9779 88.4786L21.2488 75.0385C21.3267 74.2138 20.7214 73.482 19.8966 73.404C19.0719 73.326 18.3401 73.9314 18.2621 74.7561L17.1324 86.7028L5.18572 85.5732C4.36097 85.4952 3.62916 86.1006 3.55118 86.9253C3.47319 87.7501 4.07856 88.4819 4.90331 88.5598L18.3434 89.8307ZM23.4406 0.65913C11.7636 10.3988 5.47719 20.8434 2.68486 31.0711C-0.103278 41.2834 0.620231 51.1742 2.79304 59.7838C4.96473 68.389 8.59359 75.754 11.6694 80.9592C13.2091 83.5649 14.6153 85.6378 15.64 87.0636C16.1525 87.7767 16.57 88.3285 16.8617 88.7047C17.0075 88.8929 17.1219 89.0372 17.201 89.1359C17.2406 89.1853 17.2714 89.2232 17.2928 89.2496C17.3035 89.2627 17.3119 89.273 17.3179 89.2803C17.3209 89.284 17.3234 89.2869 17.3252 89.2891C17.3261 89.2902 17.327 89.2913 17.3274 89.2918C17.3282 89.2927 17.3288 89.2935 18.4846 88.3374C19.6404 87.3813 19.6407 87.3816 19.6408 87.3818C19.6406 87.3816 19.6406 87.3816 19.6403 87.3812C19.6397 87.3805 19.6385 87.379 19.6367 87.3768C19.6331 87.3724 19.6271 87.3651 19.6188 87.3549C19.6022 87.3345 19.5764 87.3026 19.5418 87.2595C19.4725 87.1731 19.3683 87.0417 19.2328 86.8669C18.9618 86.5173 18.5661 85.9945 18.0761 85.3127C17.0958 83.9488 15.7401 81.951 14.2521 79.433C11.2725 74.3905 7.78279 67.2953 5.70184 59.0497C3.62201 50.8086 2.9588 41.4582 5.57894 31.8612C8.1949 22.2796 14.1118 12.3467 25.3622 2.96294L23.4406 0.65913Z" fill="#E56055"/>
</svg>
