<svg width="33" height="113" viewBox="0 0 33 113" fill="none" xmlns="http://www.w3.org/2000/svg">
<path d="M31.8079 2.83483C32.4642 2.3293 32.5864 1.38745 32.0809 0.731146C31.5754 0.0748432 30.6335 -0.0473847 29.9772 0.458143L31.8079 2.83483ZM19.6229 112.306C20.441 112.436 21.2097 111.878 21.3399 111.06L23.4606 97.7278C23.5907 96.9096 23.033 96.1409 22.2148 96.0108C21.3967 95.8806 20.628 96.4384 20.4978 97.2565L18.6128 109.108L6.76175 107.222C5.9436 107.092 5.17487 107.65 5.04474 108.468C4.9146 109.286 5.47234 110.055 6.29048 110.185L19.6229 112.306ZM29.9772 0.458143C15.2734 11.784 7.15481 24.4379 3.30991 37.0817C-0.529326 49.7069 -0.0786234 62.2245 2.19668 73.2607C4.47146 84.2943 8.57897 93.8931 12.1088 100.725C13.8753 104.144 15.5015 106.878 16.6892 108.762C17.2832 109.704 17.7678 110.434 18.106 110.932C18.2751 111.18 18.4076 111.371 18.4989 111.501C18.5445 111.566 18.5798 111.615 18.6043 111.65C18.6165 111.667 18.626 111.68 18.6327 111.689C18.6361 111.694 18.6387 111.698 18.6407 111.7C18.6417 111.702 18.6426 111.703 18.6431 111.704C18.6438 111.705 18.6444 111.705 19.8585 110.825C21.0726 109.944 21.0728 109.944 21.0729 109.944C21.0726 109.944 21.0725 109.944 21.0721 109.943C21.0712 109.942 21.0696 109.939 21.0673 109.936C21.0627 109.93 21.0553 109.92 21.0452 109.906C21.0251 109.877 20.9941 109.834 20.9528 109.775C20.8703 109.658 20.7468 109.48 20.5868 109.245C20.2668 108.774 19.8013 108.073 19.227 107.162C18.0783 105.34 16.4959 102.68 14.774 99.3478C11.327 92.6762 7.33817 83.3417 5.13488 72.6549C2.93212 61.9706 2.52305 49.9807 6.18014 37.9545C9.83157 25.9469 17.5654 13.8054 31.8079 2.83483L29.9772 0.458143Z" fill="#E56055"/>
</svg>
