<svg width="130" height="84" viewBox="0 0 130 84" fill="none" xmlns="http://www.w3.org/2000/svg">
<path d="M100.267 24.6572C100.864 24.0296 101.573 23.5318 102.352 23.1922C103.132 22.8525 103.967 22.6777 104.811 22.6777C105.655 22.6777 106.491 22.8525 107.27 23.1922C108.05 23.5318 108.758 24.0296 109.355 24.6572C109.952 25.2848 110.425 26.0298 110.748 26.8498C111.071 27.6697 111.237 28.5486 111.237 29.4361C111.237 30.3236 111.071 31.2024 110.748 32.0224C110.425 32.8424 109.952 33.5874 109.355 34.215L65.2403 78.946L52.7451 82.5301L56.1529 69.3882L100.267 24.6572Z" stroke="#E24E42" stroke-width="2" stroke-linecap="round" stroke-linejoin="round"/>
<path d="M117.894 6.01733C118.491 5.38975 119.199 4.89193 119.979 4.55229C120.758 4.21265 121.594 4.03784 122.438 4.03784C123.282 4.03784 124.117 4.21265 124.897 4.55229C125.676 4.89193 126.385 5.38975 126.982 6.01733C127.578 6.6449 128.052 7.38994 128.374 8.20991C128.697 9.02987 128.864 9.90871 128.864 10.7962C128.864 11.6838 128.697 12.5626 128.374 13.3826C128.052 14.2025 127.578 14.9476 126.982 15.5751L117.895 25.1329C117.895 25.1329 118.095 22.7891 115.139 19.3648C112.183 15.9405 108.808 15.5751 108.808 15.5751L117.894 6.01733Z" stroke="#E24E42" stroke-width="2" stroke-linecap="round" stroke-linejoin="round"/>
<path d="M46.1643 80.1685C-26.2388 80.8178 0.709516 50.2978 41.2942 41.2069C81.8789 32.1161 78.131 1.06361 48.8511 13.3366C17.923 26.3005 -8.78191 25.9166 14.9947 1.27173" stroke="#E24E42" stroke-width="1.5" stroke-linecap="round"/>
</svg>
