<svg width="42" height="34" viewBox="0 0 42 34" fill="none" xmlns="http://www.w3.org/2000/svg">
<path d="M35.2917 0.700012H6.52873C4.89407 0.700012 3.32636 1.34938 2.17048 2.50526C1.0146 3.66114 0.365234 5.22885 0.365234 6.86351V27.4085C0.365234 29.0432 1.0146 30.6109 2.17048 31.7668C3.32636 32.9226 4.89407 33.572 6.52873 33.572H35.2917C36.9264 33.572 38.4941 32.9226 39.65 31.7668C40.8059 30.6109 41.4552 29.0432 41.4552 27.4085V6.86351C41.4552 5.22885 40.8059 3.66114 39.65 2.50526C38.4941 1.34938 36.9264 0.700012 35.2917 0.700012ZM35.2917 4.80901L21.9375 13.9926C21.6252 14.1729 21.2709 14.2679 20.9102 14.2679C20.5496 14.2679 20.1953 14.1729 19.883 13.9926L6.52873 4.80901H35.2917Z" fill="#E56055"/>
</svg>
