<svg width="42" height="34" viewBox="0 0 42 34" fill="none" xmlns="http://www.w3.org/2000/svg">
<path opacity="0.9" d="M35.6892 0.517578H6.9262C5.29153 0.517578 3.72382 1.16695 2.56794 2.32283C1.41206 3.47871 0.762695 5.04642 0.762695 6.68108V27.2261C0.762695 28.8607 1.41206 30.4285 2.56794 31.5843C3.72382 32.7402 5.29153 33.3896 6.9262 33.3896H35.6892C37.3239 33.3896 38.8916 32.7402 40.0475 31.5843C41.2033 30.4285 41.8527 28.8607 41.8527 27.2261V6.68108C41.8527 5.04642 41.2033 3.47871 40.0475 2.32283C38.8916 1.16695 37.3239 0.517578 35.6892 0.517578ZM35.6892 4.62658L22.3349 13.8102C22.0226 13.9905 21.6683 14.0854 21.3077 14.0854C20.9471 14.0854 20.5928 13.9905 20.2804 13.8102L6.9262 4.62658H35.6892Z" fill="#E24E42"/>
</svg>
