<svg width="43" height="41" viewBox="0 0 43 41" fill="none" xmlns="http://www.w3.org/2000/svg">
<path fill-rule="evenodd" clip-rule="evenodd" d="M21.4749 0.591125C10.1248 0.591125 0.931641 9.78424 0.931641 21.1344C0.931641 30.2248 6.81215 37.9028 14.9781 40.6248C16.0053 40.8046 16.3904 40.1883 16.3904 39.649C16.3904 39.1611 16.3648 37.5433 16.3648 35.8228C11.2033 36.773 9.86796 34.5646 9.4571 33.409C9.22598 32.8184 8.2245 30.9952 7.35141 30.5073C6.6324 30.1221 5.60523 29.1719 7.32573 29.1463C8.94351 29.1206 10.0991 30.6357 10.4843 31.252C12.3332 34.3591 15.2862 33.486 16.4675 32.9468C16.6472 31.6115 17.1865 30.7127 17.7771 30.1991C13.2062 29.6855 8.42993 27.9137 8.42993 20.0559C8.42993 17.8218 9.22598 15.9729 10.5356 14.5349C10.3302 14.0213 9.61117 11.9156 10.7411 9.0909C10.7411 9.0909 12.4615 8.55164 16.3904 11.1966C18.0339 10.7344 19.7801 10.5033 21.5263 10.5033C23.2724 10.5033 25.0186 10.7344 26.6621 11.1966C30.591 8.52596 32.3115 9.0909 32.3115 9.0909C33.4414 11.9156 32.7223 14.0213 32.5169 14.5349C33.8265 15.9729 34.6226 17.7961 34.6226 20.0559C34.6226 27.9393 29.8206 29.6855 25.2497 30.1991C25.9944 30.8411 26.6364 32.0737 26.6364 33.9996C26.6364 36.7473 26.6107 38.9557 26.6107 39.649C26.6107 40.1883 26.9959 40.8302 28.0231 40.6248C32.1012 39.2479 35.6449 36.6269 38.1555 33.1306C40.666 29.6343 42.0169 25.4387 42.0182 21.1344C42.0182 9.78424 32.8251 0.591125 21.4749 0.591125Z" fill="#E56055"/>
</svg>
