<svg width="42" height="41" viewBox="0 0 42 41" fill="none" xmlns="http://www.w3.org/2000/svg">
<path opacity="0.9" fill-rule="evenodd" clip-rule="evenodd" d="M20.8714 0.408569C9.52124 0.408569 0.328125 9.60168 0.328125 20.9518C0.328125 30.0422 6.20863 37.7203 14.3746 40.4423C15.4017 40.622 15.7869 40.0057 15.7869 39.4665C15.7869 38.9786 15.7613 37.3608 15.7613 35.6403C10.5998 36.5904 9.26445 34.382 8.85358 33.2264C8.62247 32.6358 7.62098 30.8126 6.7479 30.3247C6.02888 29.9395 5.00172 28.9894 6.72222 28.9637C8.34 28.938 9.49556 30.4531 9.88074 31.0694C11.7296 34.1766 14.6827 33.3035 15.864 32.7642C16.0437 31.4289 16.583 30.5301 17.1736 30.0166C12.6027 29.503 7.82642 27.7311 7.82642 19.8733C7.82642 17.6392 8.62247 15.7903 9.9321 14.3523C9.72667 13.8387 9.00765 11.733 10.1375 8.90835C10.1375 8.90835 11.858 8.36909 15.7869 11.014C17.4304 10.5518 19.1766 10.3207 20.9227 10.3207C22.6689 10.3207 24.4151 10.5518 26.0586 11.014C29.9875 8.34341 31.708 8.90835 31.708 8.90835C32.8378 11.733 32.1188 13.8387 31.9134 14.3523C33.223 15.7903 34.0191 17.6136 34.0191 19.8733C34.0191 27.7568 29.2171 29.503 24.6462 30.0166C25.3909 30.6585 26.0329 31.8911 26.0329 33.8171C26.0329 36.5647 26.0072 38.7731 26.0072 39.4665C26.0072 40.0057 26.3924 40.6477 27.4196 40.4423C31.4977 39.0654 35.0414 36.4443 37.5519 32.948C40.0625 29.4517 41.4134 25.2561 41.4147 20.9518C41.4147 9.60168 32.2215 0.408569 20.8714 0.408569Z" fill="#E24E42"/>
</svg>
