<svg width="42" height="42" viewBox="0 0 42 42" fill="none" xmlns="http://www.w3.org/2000/svg">
<path fill-rule="evenodd" clip-rule="evenodd" d="M0.804688 4.02401C0.804688 3.11356 1.16637 2.24039 1.81016 1.5966C2.45395 0.952808 3.32711 0.59113 4.23757 0.59113H38.4581C38.9093 0.590393 39.3562 0.678657 39.7732 0.850869C40.1902 1.02308 40.5692 1.27586 40.8884 1.59473C41.2077 1.9136 41.4609 2.2923 41.6335 2.70915C41.8062 3.126 41.8949 3.57282 41.8947 4.02401V38.2445C41.8952 38.6958 41.8067 39.1427 41.6343 39.5598C41.4619 39.9768 41.2089 40.3558 40.8899 40.675C40.5709 40.9942 40.192 41.2474 39.7751 41.42C39.3581 41.5926 38.9112 41.6814 38.4599 41.6811H4.23757C3.7866 41.6811 3.34005 41.5923 2.92343 41.4196C2.50681 41.247 2.12829 40.994 1.8095 40.675C1.4907 40.356 1.23787 39.9774 1.06546 39.5607C0.893056 39.1439 0.804443 38.6973 0.804688 38.2464V4.02401ZM17.0689 16.2576H22.6328V19.0517C23.4359 17.4455 25.4904 15.9999 28.5778 15.9999C34.4966 15.9999 35.8993 19.1993 35.8993 25.0696V35.9435H29.9095V26.4069C29.9095 23.0636 29.1064 21.1772 27.0668 21.1772C24.2372 21.1772 23.0605 23.2112 23.0605 26.4069V35.9435H17.0689V16.2576ZM6.79636 35.6876H12.788V15.9999H6.79636V35.6876ZM13.6453 9.57863C13.6566 10.0916 13.5653 10.6017 13.3768 11.079C13.1883 11.5563 12.9063 11.9911 12.5475 12.3579C12.1887 12.7247 11.7602 13.0161 11.2872 13.2151C10.8142 13.4141 10.3063 13.5166 9.79313 13.5166C9.27999 13.5166 8.77202 13.4141 8.29903 13.2151C7.82604 13.0161 7.39756 12.7247 7.03873 12.3579C6.6799 11.9911 6.39796 11.5563 6.20944 11.079C6.02093 10.6017 5.92964 10.0916 5.94094 9.57863C5.96311 8.57166 6.3787 7.61339 7.09871 6.90906C7.81872 6.20474 8.7859 5.81034 9.79313 5.81034C10.8003 5.81034 11.7675 6.20474 12.4875 6.90906C13.2075 7.61339 13.6231 8.57166 13.6453 9.57863Z" fill="#E56055"/>
</svg>
