<svg width="42" height="42" viewBox="0 0 42 42" fill="none" xmlns="http://www.w3.org/2000/svg">
<path opacity="0.9" fill-rule="evenodd" clip-rule="evenodd" d="M0.201172 3.84146C0.201172 2.931 0.56285 2.05783 1.20664 1.41404C1.85043 0.770251 2.7236 0.408574 3.63405 0.408574H37.8545C38.3057 0.407837 38.7527 0.496101 39.1697 0.668313C39.5867 0.840524 39.9657 1.0933 40.2849 1.41217C40.6041 1.73104 40.8573 2.10974 41.03 2.52659C41.2027 2.94345 41.2914 3.39026 41.2912 3.84146V38.062C41.2917 38.5132 41.2032 38.9602 41.0308 39.3772C40.8583 39.7943 40.6054 40.1733 40.2864 40.4924C39.9673 40.8116 39.5885 41.0648 39.1716 41.2374C38.7546 41.4101 38.3077 41.4988 37.8564 41.4986H3.63405C3.18309 41.4986 2.73653 41.4097 2.31992 41.2371C1.9033 41.0644 1.52478 40.8114 1.20598 40.4924C0.887183 40.1735 0.634357 39.7948 0.461949 39.3781C0.28954 38.9614 0.200927 38.5148 0.201172 38.0638V3.84146ZM16.4653 16.0751H22.0293V18.8692C22.8324 17.2629 24.8869 15.8173 27.9743 15.8173C33.8931 15.8173 35.2958 19.0167 35.2958 24.887V35.7609H29.306V26.2243C29.306 22.8811 28.5028 20.9947 26.4633 20.9947C23.6337 20.9947 22.457 23.0286 22.457 26.2243V35.7609H16.4653V16.0751ZM6.19284 35.505H12.1845V15.8173H6.19284V35.505ZM13.0418 9.39608C13.0531 9.90909 12.9618 10.4192 12.7733 10.8964C12.5848 11.3737 12.3028 11.8085 11.944 12.1753C11.5852 12.5421 11.1567 12.8336 10.6837 13.0326C10.2107 13.2315 9.70275 13.334 9.18961 13.334C8.67647 13.334 8.1685 13.2315 7.69551 13.0326C7.22252 12.8336 6.79404 12.5421 6.43521 12.1753C6.07639 11.8085 5.79444 11.3737 5.60593 10.8964C5.41741 10.4192 5.32613 9.90909 5.33742 9.39608C5.3596 8.3891 5.77519 7.43084 6.4952 6.72651C7.21521 6.02218 8.18239 5.62778 9.18961 5.62778C10.1968 5.62778 11.164 6.02218 11.884 6.72651C12.604 7.43084 13.0196 8.3891 13.0418 9.39608Z" fill="#E24E42"/>
</svg>
