<svg width="126" height="83" viewBox="0 0 126 83" fill="none" xmlns="http://www.w3.org/2000/svg">
<path d="M50.7521 24.5448C50.9788 24.7827 51.1587 25.0652 51.2814 25.3763C51.4041 25.6873 51.4673 26.0208 51.4673 26.3576C51.4673 26.6944 51.4041 27.0278 51.2814 27.3389C51.1587 27.65 50.9788 27.9325 50.7521 28.1703L37.8644 41.72L50.7521 55.2696C51.2092 55.7504 51.466 56.4024 51.466 57.0824C51.466 57.7623 51.2092 58.4143 50.7521 58.8951C50.295 59.3759 49.675 59.646 49.0285 59.646C48.3821 59.646 47.7621 59.3759 47.305 58.8951L32.6986 43.5327C32.4719 43.2949 32.292 43.0123 32.1693 42.7013C32.0466 42.3902 31.9834 42.0567 31.9834 41.72C31.9834 41.3832 32.0466 41.0497 32.1693 40.7386C32.292 40.4276 32.4719 40.145 32.6986 39.9072L47.305 24.5448C47.5311 24.3064 47.7998 24.1172 48.0955 23.9881C48.3913 23.859 48.7083 23.7926 49.0285 23.7926C49.3488 23.7926 49.6658 23.859 49.9616 23.9881C50.2573 24.1172 50.526 24.3064 50.7521 24.5448ZM75.0732 24.5448C74.8465 24.7827 74.6667 25.0652 74.5439 25.3763C74.4212 25.6873 74.358 26.0208 74.358 26.3576C74.358 26.6944 74.4212 27.0278 74.5439 27.3389C74.6667 27.65 74.8465 27.9325 75.0732 28.1703L87.961 41.72L75.0732 55.2696C74.6161 55.7504 74.3593 56.4024 74.3593 57.0824C74.3593 57.7623 74.6161 58.4143 75.0732 58.8951C75.5304 59.3759 76.1503 59.646 76.7968 59.646C77.4433 59.646 78.0632 59.3759 78.5204 58.8951L93.1268 43.5327C93.3535 43.2949 93.5333 43.0123 93.6561 42.7013C93.7788 42.3902 93.8419 42.0567 93.8419 41.72C93.8419 41.3832 93.7788 41.0497 93.6561 40.7386C93.5333 40.4276 93.3535 40.145 93.1268 39.9072L78.5204 24.5448C78.2942 24.3064 78.0256 24.1172 77.7298 23.9881C77.4341 23.859 77.117 23.7926 76.7968 23.7926C76.4766 23.7926 76.1595 23.859 75.8638 23.9881C75.568 24.1172 75.2994 24.3064 75.0732 24.5448Z" fill="#E24E42"/>
<rect x="1.04297" y="1.76904" width="123.741" height="79.9011" rx="3" stroke="#E24E42" stroke-width="2"/>
</svg>
