<svg width="196" height="55" viewBox="0 0 196 55" fill="none" xmlns="http://www.w3.org/2000/svg">
<path d="M6.48709 34.7901C6.17509 34.8074 5.91509 34.6601 5.70709 34.3481C5.49909 34.0361 5.40375 33.7761 5.42109 33.5681C5.43842 33.2908 5.51642 32.8921 5.65509 32.3721C5.79375 31.8521 5.94975 31.3234 6.12309 30.7861C6.29642 30.2488 6.45242 29.8241 6.59109 29.5121C6.66042 29.2348 6.72109 28.9921 6.77309 28.7841C6.84242 28.5588 6.88575 28.4114 6.90309 28.3421C6.95509 28.2728 7.03309 28.0908 7.13709 27.7961C7.25842 27.5014 7.35375 27.2154 7.42309 26.9381C7.45775 26.7994 7.52709 26.5394 7.63109 26.1581C7.75242 25.7594 7.89109 25.3001 8.04709 24.7801C8.22042 24.2601 8.38509 23.7488 8.54109 23.2461C8.71442 22.7434 8.86175 22.3014 8.98309 21.9201C9.10442 21.5388 9.18242 21.2874 9.21709 21.1661C9.35575 20.9581 9.45975 20.7588 9.52909 20.5681C9.59842 20.3774 9.64175 20.2474 9.65909 20.1781C9.76309 20.1088 9.82375 20.0221 9.84109 19.9181C9.85842 19.7968 9.86709 19.7014 9.86709 19.6321C9.86709 19.5454 9.89309 19.4761 9.94509 19.4241C10.0144 19.3721 10.0491 19.3114 10.0491 19.2421C10.1184 19.1901 10.1618 19.1814 10.1791 19.2161C10.1964 19.2508 10.2484 19.2248 10.3351 19.1381L10.4651 18.2541L12.7791 18.2281C12.7444 18.4361 12.6924 18.6961 12.6231 19.0081C12.5538 19.3028 12.3891 19.7014 12.1291 20.2041C12.0424 20.5508 11.9384 20.8628 11.8171 21.1401C11.7131 21.4174 11.6698 21.5994 11.6871 21.6861C11.6524 21.7208 11.5744 21.8941 11.4531 22.2061C11.3491 22.5181 11.2191 22.8994 11.0631 23.3501C10.9244 23.8008 10.7771 24.2514 10.6211 24.7021C10.4824 25.1528 10.3524 25.5514 10.2311 25.8981C10.1271 26.2274 10.0578 26.4354 10.0231 26.5221C9.88442 26.7994 9.72842 27.2068 9.55509 27.7441C9.38175 28.2814 9.12175 29.0094 8.77509 29.9281C8.63642 30.2054 8.46309 30.6214 8.25509 31.1761C8.06442 31.7308 7.90842 32.2334 7.78709 32.6841C7.59642 33.3601 7.42309 33.8454 7.26709 34.1401C7.12842 34.4348 6.99842 34.6081 6.87709 34.6601C6.75575 34.7294 6.62575 34.7728 6.48709 34.7901ZM6.72109 19.5021C6.01042 19.5714 5.52509 19.4848 5.26509 19.2421C5.02242 18.9994 4.93575 18.7394 5.00509 18.4621C5.05709 18.2541 5.17842 18.0808 5.36909 17.9421C5.57709 17.7861 5.94975 17.6561 6.48709 17.5521C6.67775 17.5174 6.92042 17.4741 7.21509 17.4221C7.52709 17.3701 7.82175 17.3181 8.09909 17.2661C8.67109 17.1968 9.13909 17.1361 9.50309 17.0841C9.88442 17.0321 10.2744 16.9888 10.6731 16.9541C11.0718 16.9194 11.5744 16.8848 12.1811 16.8501C12.6838 16.8154 13.1084 16.7894 13.4551 16.7721C13.8191 16.7374 14.0011 16.7201 14.0011 16.7201C14.0531 16.7201 14.2351 16.7374 14.5471 16.7721C14.8591 16.8068 15.1971 16.8501 15.5611 16.9021C15.9251 16.9541 16.1938 17.0148 16.3671 17.0841C16.7658 17.1708 17.0864 17.3268 17.3291 17.5521C17.5718 17.7774 17.7278 18.0374 17.7971 18.3321C17.8491 18.5401 17.8491 18.7048 17.7971 18.8261C17.7451 18.9301 17.6498 19.0168 17.5111 19.0861C17.1124 19.2074 16.7831 19.3114 16.5231 19.3981C16.2804 19.4674 16.0378 19.4588 15.7951 19.3721C15.7084 19.2854 15.6044 19.2074 15.4831 19.1381C15.3791 19.0688 15.1884 19.0168 14.9111 18.9821C14.6511 18.9301 14.2351 18.8868 13.6631 18.8521C13.1778 18.9041 12.7531 18.9301 12.3891 18.9301C12.0251 18.9301 11.8431 18.9734 11.8431 19.0601L10.3091 19.1381L9.03509 19.2681C8.86175 19.2854 8.61909 19.3114 8.30709 19.3461C7.99509 19.3634 7.69175 19.3894 7.39709 19.4241C7.10242 19.4414 6.87709 19.4674 6.72109 19.5021ZM16.6931 32.4241C16.5718 32.4414 16.4331 32.3981 16.2771 32.2941C16.1384 32.1728 16.0084 32.0688 15.8871 31.9821C15.7138 31.7741 15.5924 31.5921 15.5231 31.4361C15.4538 31.2801 15.4191 31.1068 15.4191 30.9161C15.4191 30.7254 15.4364 30.5001 15.4711 30.2401C15.5578 29.9628 15.6618 29.5901 15.7831 29.1221C15.9044 28.6541 16.0518 28.1514 16.2251 27.6141C16.2598 27.4061 16.3204 27.1634 16.4071 26.8861C16.5111 26.5914 16.6151 26.3141 16.7191 26.0541C16.8231 25.7768 16.9011 25.5688 16.9531 25.4301C17.0744 24.9968 17.1958 24.5808 17.3171 24.1821C17.4558 23.7834 17.6204 23.3241 17.8111 22.8041C18.0018 22.2841 18.2358 21.6254 18.5131 20.8281C18.8944 19.7881 19.1804 19.0081 19.3711 18.4881C19.5618 17.9681 19.7004 17.5954 19.7871 17.3701C19.8738 17.1448 19.9344 16.9628 19.9691 16.8241C19.9691 16.6854 20.0644 16.5554 20.2551 16.4341C20.4631 16.2954 20.6451 16.2261 20.8011 16.2261C21.0438 16.2434 21.2778 16.3908 21.5031 16.6681C21.7284 16.9281 21.8844 17.2488 21.9711 17.6301C22.0578 17.9941 21.9971 18.3494 21.7891 18.6961C21.5118 19.3201 21.2344 20.0221 20.9571 20.8021C20.6971 21.5648 20.4371 22.3274 20.1771 23.0901C19.9171 23.8528 19.6571 24.5548 19.3971 25.1961C19.3798 25.2828 19.3191 25.4301 19.2151 25.6381C19.1284 25.8461 19.0504 26.0194 18.9811 26.1581C18.9118 26.2968 18.8424 26.4268 18.7731 26.5481C18.7211 26.6694 18.6951 26.7301 18.6951 26.7301C18.6778 26.8341 18.6431 26.9814 18.5911 27.1721C18.5391 27.3628 18.4871 27.5274 18.4351 27.6661C18.4178 27.7528 18.3918 27.8654 18.3571 28.0041C18.3224 28.1428 18.2964 28.2814 18.2791 28.4201C18.3658 28.3161 18.4871 28.1948 18.6431 28.0561C18.7991 27.9001 18.9984 27.7094 19.2411 27.4841C19.5184 27.2414 19.7611 27.0334 19.9691 26.8601C20.1771 26.6868 20.3851 26.5308 20.5931 26.3921C20.7838 26.2534 20.9571 26.1234 21.1131 26.0021C21.2864 25.8808 21.3731 25.8201 21.3731 25.8201C21.4078 25.7681 21.4424 25.7074 21.4771 25.6381C21.5291 25.5688 21.5811 25.5254 21.6331 25.5081C21.6678 25.4734 21.7284 25.4301 21.8151 25.3781C21.9018 25.3088 21.9884 25.2394 22.0751 25.1701C22.2311 25.0661 22.3958 24.9794 22.5691 24.9101C22.7424 24.8408 22.9244 24.7888 23.1151 24.7541C23.3058 24.7194 23.4878 24.7021 23.6611 24.7021C23.8691 24.7021 24.0858 24.7888 24.3111 24.9621C24.5364 25.1181 24.7444 25.3434 24.9351 25.6381C25.1084 25.8634 25.2124 26.1321 25.2471 26.4441C25.2991 26.7388 25.3078 27.1374 25.2731 27.6401C25.2731 27.7788 25.2298 28.0388 25.1431 28.4201C25.0738 28.8014 25.0218 29.0874 24.9871 29.2781L24.7531 30.1621H24.9611C25.1518 30.0928 25.3338 30.0841 25.5071 30.1361C25.6978 30.1881 25.7931 30.2141 25.7931 30.2141C25.8798 30.2661 25.9578 30.3268 26.0271 30.3961C26.1138 30.4654 26.1918 30.5174 26.2611 30.5521C26.3651 30.6908 26.3478 30.8901 26.2091 31.1501C26.0704 31.4101 25.9144 31.5921 25.7411 31.6961C25.3251 31.9734 24.9524 32.1468 24.6231 32.2161C24.3111 32.2854 23.9818 32.2248 23.6351 32.0341C23.3058 31.8088 23.0804 31.5401 22.9591 31.2281C22.8551 30.9161 22.8118 30.4914 22.8291 29.9541C22.8984 29.1914 22.9418 28.6454 22.9591 28.3161C22.9764 27.9694 22.8898 27.7961 22.6991 27.7961C22.4911 27.7961 22.2051 27.9001 21.8411 28.1081C21.4944 28.2988 21.1044 28.5674 20.6711 28.9141C20.2378 29.2434 19.8044 29.6161 19.3711 30.0321C18.9551 30.4308 18.5824 30.8381 18.2531 31.2541C18.0451 31.5141 17.8198 31.7741 17.5771 32.0341C17.3344 32.2768 17.0398 32.4068 16.6931 32.4241ZM28.5922 32.8661C28.5228 32.7274 28.3668 32.5888 28.1242 32.4501C27.8988 32.3114 27.7862 32.2074 27.7862 32.1381C27.7862 32.0688 27.7428 31.9648 27.6562 31.8261C27.5868 31.6701 27.5175 31.5574 27.4482 31.4881C27.3615 31.3841 27.3875 31.1328 27.5262 30.7341C27.6648 30.3181 27.8728 29.8154 28.1502 29.2261C28.4275 28.6368 28.7308 28.0388 29.0602 27.4321C29.1988 27.2934 29.3375 27.1114 29.4762 26.8861C29.6148 26.6608 29.7188 26.5134 29.7882 26.4441C29.7882 26.3748 29.8142 26.3141 29.8662 26.2621C29.9182 26.1928 29.9788 26.1581 30.0482 26.1581L30.2562 25.7421C30.2908 25.6728 30.3948 25.5341 30.5682 25.3261C30.7588 25.1181 30.9842 24.8928 31.2442 24.6501C31.5042 24.3901 31.7642 24.1474 32.0242 23.9221C32.3015 23.6968 32.5268 23.5321 32.7002 23.4281C33.0642 23.1854 33.4368 23.0728 33.8182 23.0901C34.2168 23.1074 34.5548 23.2288 34.8322 23.4541C34.8842 23.5061 34.9968 23.6101 35.1702 23.7661C35.3608 23.9221 35.5688 24.0954 35.7942 24.2861C36.0368 24.4768 36.2448 24.6501 36.4182 24.8061L37.3802 25.6641L36.9382 26.9641C36.7128 27.6574 36.6522 28.2641 36.7562 28.7841C36.8775 29.3041 37.0422 29.7548 37.2502 30.1361C37.3368 30.3268 37.4495 30.4741 37.5882 30.5781C37.7442 30.6821 37.9435 30.7514 38.1862 30.7861C38.3248 30.8034 38.4548 30.8554 38.5762 30.9421C38.6975 31.0288 38.7582 31.1674 38.7582 31.3581C38.7582 31.7741 38.6802 32.0774 38.5242 32.2681C38.3855 32.4414 38.2295 32.5454 38.0562 32.5801C37.4842 32.6494 36.9382 32.5888 36.4182 32.3981C35.8982 32.2074 35.4302 31.7134 35.0142 30.9161C34.9448 30.8121 34.8495 30.6214 34.7282 30.3441C34.6242 30.0494 34.5635 29.8588 34.5462 29.7721C34.4768 29.8588 34.3815 29.9714 34.2602 30.1101C34.1562 30.2314 34.0522 30.3441 33.9482 30.4481C32.7175 31.6961 31.6602 32.5108 30.7762 32.8921C29.9095 33.2561 29.1815 33.2474 28.5922 32.8661ZM30.0222 30.7081C30.1435 30.7254 30.3342 30.6648 30.5942 30.5261C30.8542 30.3701 31.2008 30.1188 31.6342 29.7721C32.2235 29.2694 32.7088 28.8534 33.0902 28.5241C33.4715 28.1948 33.8442 27.7701 34.2082 27.2501L34.7802 26.3141C34.6068 25.9154 34.4508 25.6554 34.3122 25.5341C34.1735 25.4128 34.0348 25.3521 33.8962 25.3521C33.6708 25.3521 33.4022 25.4994 33.0902 25.7941C32.7782 26.0714 32.4228 26.4874 32.0242 27.0421C31.6428 27.5794 31.2095 28.2554 30.7242 29.0701C30.4988 29.4514 30.3255 29.8241 30.2042 30.1881C30.0828 30.5348 30.0222 30.7081 30.0222 30.7081ZM42.9517 33.5681C42.709 33.4988 42.4663 33.3774 42.2237 33.2041C41.981 33.0308 41.7297 32.8314 41.4697 32.6061C41.2617 32.3288 41.1143 32.0774 41.0277 31.8521C40.941 31.6094 40.889 31.3321 40.8717 31.0201C40.8717 30.6908 40.8717 30.2748 40.8717 29.7721C40.8717 29.5641 40.9063 29.2694 40.9757 28.8881C41.0623 28.5068 41.149 28.1081 41.2357 27.6921C41.3397 27.2761 41.435 26.9121 41.5217 26.6001C41.6083 26.2708 41.6603 26.0541 41.6777 25.9501C41.7297 25.7248 41.643 25.5948 41.4177 25.5601C41.1923 25.5254 40.941 25.5168 40.6637 25.5341C40.4037 25.5341 40.2303 25.5081 40.1437 25.4561C40.0743 25.4388 40.0397 25.3521 40.0397 25.1961C40.0397 25.0228 40.0397 24.9361 40.0397 24.9361C40.0397 24.8668 40.005 24.8234 39.9357 24.8061C39.8663 24.7714 39.8057 24.7108 39.7537 24.6241C39.719 24.5548 39.7623 24.4248 39.8837 24.2341C40.005 24.0434 40.161 23.9308 40.3517 23.8961C40.5077 23.8614 40.7417 23.8354 41.0537 23.8181C41.3657 23.7834 41.6777 23.7228 41.9897 23.6361C42.319 23.5321 42.5703 23.3761 42.7437 23.1681C42.8997 22.7868 43.073 22.3794 43.2637 21.9461C43.4543 21.4954 43.6363 21.1054 43.8097 20.7761C43.983 20.4294 44.1043 20.2128 44.1737 20.1261C44.4683 19.9701 44.7717 19.9094 45.0837 19.9441C45.3957 19.9614 45.6383 20.1088 45.8117 20.3861C45.8983 20.5074 45.9677 20.5941 46.0197 20.6461C46.089 20.6981 46.115 20.7761 46.0977 20.8801C46.0977 20.9841 46.0283 21.1748 45.8897 21.4521C45.7683 21.7121 45.5603 22.1194 45.2657 22.6741C45.179 22.8474 45.101 23.0034 45.0317 23.1421C44.9623 23.2634 44.9277 23.3241 44.9277 23.3241C44.997 23.3414 45.101 23.3501 45.2397 23.3501C45.3783 23.3501 45.5517 23.3414 45.7597 23.3241C45.9503 23.2894 46.1583 23.2634 46.3837 23.2461C46.609 23.2114 46.8083 23.2114 46.9817 23.2461C47.3803 23.2461 47.675 23.3588 47.8657 23.5841C48.0563 23.8094 48.1603 24.0954 48.1777 24.4421C48.2123 24.6328 48.143 24.7974 47.9697 24.9361C47.7963 25.0748 47.4757 25.1441 47.0077 25.1441C46.8517 25.1441 46.6263 25.1528 46.3317 25.1701C46.037 25.1874 45.7337 25.2048 45.4217 25.2221C45.1097 25.2394 44.841 25.2654 44.6157 25.3001C44.4077 25.3174 44.3037 25.3434 44.3037 25.3781C44.2517 25.4128 44.165 25.5514 44.0437 25.7941C43.9397 26.0194 43.827 26.2968 43.7057 26.6261C43.6017 26.9554 43.5063 27.2674 43.4197 27.5621C43.2983 28.1514 43.2117 28.7234 43.1597 29.2781C43.1077 29.8328 43.099 30.3181 43.1337 30.7341C43.1857 31.1328 43.2897 31.4188 43.4457 31.5921C43.6017 31.7481 43.8357 31.7481 44.1477 31.5921C44.477 31.4188 44.7803 31.2194 45.0577 30.9941C45.3697 30.7341 45.6383 30.6561 45.8637 30.7601C46.089 30.8468 46.2277 31.0374 46.2797 31.3321C46.349 31.6094 46.271 31.9128 46.0457 32.2421C45.8377 32.5714 45.543 32.8488 45.1617 33.0741C44.7803 33.2994 44.3903 33.4554 43.9917 33.5421C43.593 33.6461 43.2463 33.6548 42.9517 33.5681ZM51.2471 22.1281C51.0738 22.1454 50.8571 22.1454 50.5971 22.1281C50.3544 22.1108 50.2071 21.9461 50.1551 21.6341C50.1378 21.5128 50.1551 21.4001 50.2071 21.2961C50.2591 21.1921 50.3284 21.0794 50.4151 20.9581C50.6231 20.6114 50.8571 20.2301 51.1171 19.8141C51.3944 19.3981 51.5764 19.0601 51.6631 18.8001C51.6631 18.7308 51.6718 18.6701 51.6891 18.6181C51.3944 18.6701 51.0911 18.5661 50.7791 18.3061C50.4498 17.9941 50.3544 17.5868 50.4931 17.0841C50.6491 16.5641 50.9524 16.1481 51.4031 15.8361C51.7151 15.6454 52.0098 15.5414 52.2871 15.5241C52.5644 15.5068 52.8591 15.5674 53.1711 15.7061C53.4658 15.8794 53.7084 16.1481 53.8991 16.5121C54.0898 16.8588 54.1418 17.1448 54.0551 17.3701C54.0031 17.7688 53.9078 18.1414 53.7691 18.4881C53.6478 18.8348 53.5351 19.1728 53.4311 19.5021C53.3271 19.8834 53.1104 20.2908 52.7811 20.7241C52.4691 21.1401 52.1658 21.5214 51.8711 21.8681C51.8884 21.9374 51.8364 21.9808 51.7151 21.9981C51.5938 22.0154 51.4378 22.0588 51.2471 22.1281ZM52.604 33.5681C52.0146 33.3254 51.5813 33.0741 51.304 32.8141C51.044 32.5368 50.94 32.2941 50.992 32.0861C51.0266 31.9821 51.0873 31.8868 51.174 31.8001C51.2606 31.7134 51.4513 31.6788 51.746 31.6961C52.058 31.6961 52.5346 31.7741 53.176 31.9301C53.3666 31.9301 53.5573 31.9214 53.748 31.9041C53.9386 31.8868 54.112 31.8608 54.268 31.8261C54.4413 31.7914 54.58 31.7481 54.684 31.6961C54.7706 31.6614 54.7966 31.6181 54.762 31.5661C54.7273 31.4968 54.6666 31.4274 54.58 31.3581C54.5106 31.2714 54.4326 31.2194 54.346 31.2021C54.2593 31.1674 54.1813 31.1501 54.112 31.1501C54.0773 31.0634 53.9993 30.9768 53.878 30.8901C53.774 30.8034 53.644 30.7081 53.488 30.6041C53.1066 30.2921 52.76 30.0148 52.448 29.7721C52.136 29.5294 52.0146 29.3474 52.084 29.2261C52.084 29.1568 52.084 29.1221 52.084 29.1221C52.084 29.1048 52.084 29.0961 52.084 29.0961C51.9626 29.0961 51.85 28.9314 51.746 28.6021C51.642 28.2554 51.59 27.9434 51.59 27.6661C51.59 27.3194 51.6593 26.9728 51.798 26.6261C51.954 26.2794 52.1446 25.9501 52.37 25.6381C52.6126 25.3261 52.8553 25.0488 53.098 24.8061C53.4273 24.4941 53.774 24.1908 54.138 23.8961C54.5193 23.5841 54.9266 23.3068 55.36 23.0641C55.8106 22.8214 56.3046 22.6308 56.842 22.4921C57.0846 22.4401 57.362 22.4141 57.674 22.4141C57.986 22.4141 58.2113 22.4574 58.35 22.5441C58.4886 22.4574 58.662 22.4834 58.87 22.6221C59.078 22.7434 59.286 22.9168 59.494 23.1421C59.702 23.3674 59.858 23.5928 59.962 23.8181C59.962 24.0261 59.9533 24.2861 59.936 24.5981C59.936 24.8928 59.9186 25.1528 59.884 25.3781C59.8493 25.6034 59.7713 25.7161 59.65 25.7161C59.65 25.7161 59.624 25.7248 59.572 25.7421C59.5373 25.7421 59.52 25.7854 59.52 25.8721C59.52 26.0454 59.39 26.2448 59.13 26.4701C58.8006 26.6954 58.4886 26.8774 58.194 27.0161C57.8993 27.1548 57.674 27.1634 57.518 27.0421C57.414 26.9728 57.3186 26.9034 57.232 26.8341C57.1453 26.7648 57.0673 26.6781 56.998 26.5741C56.998 26.5741 56.972 26.5394 56.92 26.4701C56.8853 26.3834 56.868 26.3054 56.868 26.2361C56.868 26.1668 56.894 26.1061 56.946 26.0541C56.998 25.9848 57.024 25.9501 57.024 25.9501C57.2666 25.7248 57.4486 25.5168 57.57 25.3261C57.7086 25.1354 57.804 24.9708 57.856 24.8321C57.908 24.6761 57.934 24.5548 57.934 24.4681C57.934 24.3641 57.908 24.3034 57.856 24.2861C57.8213 24.2514 57.7346 24.2341 57.596 24.2341C57.5093 24.2341 57.3186 24.3034 57.024 24.4421C56.7466 24.5808 56.452 24.7541 56.14 24.9621C55.828 25.1528 55.5853 25.3261 55.412 25.4821C55.3426 25.6034 55.2906 25.6814 55.256 25.7161C55.2386 25.7508 55.1953 25.7681 55.126 25.7681C55.126 25.6988 55.0826 25.7074 54.996 25.7941C54.9093 25.8808 54.8053 26.0021 54.684 26.1581C54.5626 26.3141 54.4413 26.4788 54.32 26.6521C54.1986 26.8254 54.1033 26.9641 54.034 27.0681C54.0166 27.2241 53.9733 27.3714 53.904 27.5101C53.852 27.6314 53.8346 27.7614 53.852 27.9001C53.8693 28.0734 53.956 28.2381 54.112 28.3941C54.268 28.5501 54.4933 28.7494 54.788 28.9921C55.3946 29.4428 55.8453 29.7981 56.14 30.0581C56.452 30.3181 56.6686 30.5261 56.79 30.6821C56.9113 30.8381 56.9893 30.9941 57.024 31.1501C57.3186 31.6874 57.3533 32.1554 57.128 32.5541C56.9026 32.9354 56.556 33.2301 56.088 33.4381C55.9146 33.5248 55.6113 33.6028 55.178 33.6721C54.7446 33.7588 54.2853 33.7934 53.8 33.7761C53.332 33.7761 52.9333 33.7068 52.604 33.5681ZM67.3407 32.4501C67.2887 32.3808 67.176 32.2941 67.0027 32.1901C66.8294 32.0861 66.7427 31.9994 66.7427 31.9301C66.7427 31.8954 66.734 31.8521 66.7167 31.8001C66.7167 31.7481 66.682 31.7221 66.6127 31.7221C66.5607 31.6701 66.5867 31.4794 66.6907 31.1501C66.812 30.8208 66.968 30.4308 67.1587 29.9801C67.3667 29.5294 67.5834 29.0961 67.8087 28.6801C68.034 28.2468 68.2247 27.9001 68.3807 27.6401C68.4674 27.5881 68.5194 27.5188 68.5367 27.4321C68.5714 27.3281 68.5714 27.2761 68.5367 27.2761C68.5367 27.2761 68.58 27.1981 68.6667 27.0421C68.7707 26.8688 68.8487 26.7561 68.9007 26.7041C69.0394 26.4614 69.1434 26.2188 69.2127 25.9761C69.282 25.7161 69.2994 25.4994 69.2647 25.3261C69.1954 25.2394 69.1174 25.2134 69.0307 25.2481C68.944 25.2828 68.9007 25.3001 68.9007 25.3001C68.8314 25.3174 68.7274 25.3521 68.5887 25.4041C68.4674 25.4388 68.3547 25.4908 68.2507 25.5601C67.852 25.8374 67.5574 25.9761 67.3667 25.9761C67.1934 25.9761 67.02 25.7681 66.8467 25.3521C66.7774 25.1614 66.7514 24.9794 66.7687 24.8061C66.786 24.6328 66.8554 24.4941 66.9767 24.3901C67.1154 24.2688 67.2887 24.1474 67.4967 24.0261C67.7047 23.8874 67.8434 23.7921 67.9127 23.7401C68.1034 23.6188 68.372 23.4888 68.7187 23.3501C69.0654 23.2114 69.2734 23.1334 69.3427 23.1161C69.7934 22.9774 70.1747 22.9774 70.4867 23.1161C70.7987 23.2374 71.0327 23.4801 71.1887 23.8441C71.4314 24.1388 71.5527 24.4508 71.5527 24.7801C71.5527 25.1094 71.4314 25.5168 71.1887 26.0021L70.9287 26.3921C70.842 26.5654 70.8247 26.6521 70.8767 26.6521C70.946 26.6521 71.024 26.5914 71.1107 26.4701C71.1627 26.4008 71.2667 26.2968 71.4227 26.1581C71.5787 26.0194 71.6827 25.9501 71.7347 25.9501C71.7347 25.9501 71.752 25.9414 71.7867 25.9241C71.8387 25.9068 71.8647 25.8374 71.8647 25.7161C71.9167 25.6641 71.9687 25.6121 72.0207 25.5601C72.09 25.5081 72.1247 25.4821 72.1247 25.4821C72.194 25.4821 72.2807 25.4474 72.3847 25.3781C72.506 25.2914 72.7054 25.1354 72.9827 24.9101C73.1734 24.7714 73.3467 24.7021 73.5027 24.7021C73.9014 24.5808 74.222 24.7108 74.4647 25.0921C74.7247 25.4734 74.8547 25.9674 74.8547 26.5741L74.3087 27.9781L75.2447 26.8341C75.3487 26.6954 75.4527 26.5741 75.5567 26.4701C75.678 26.3661 75.782 26.2794 75.8687 26.2101C75.9034 26.0888 75.9554 26.0194 76.0247 26.0021C76.094 25.9848 76.1287 25.9761 76.1287 25.9761C76.1287 25.9761 76.146 25.9761 76.1807 25.9761C76.2154 25.9588 76.2327 25.9241 76.2327 25.8721C76.3194 25.8028 76.4147 25.7421 76.5187 25.6901C76.6227 25.6208 76.692 25.5514 76.7267 25.4821C77.0214 25.3608 77.3767 25.3434 77.7927 25.4301C78.2087 25.4994 78.5034 25.7161 78.6767 26.0801C78.798 26.2881 78.9107 26.4701 79.0147 26.6261C79.1187 26.7821 79.1707 27.0161 79.1707 27.3281C79.136 27.5881 79.1014 27.7701 79.0667 27.8741C79.0494 27.9781 79.032 28.0908 79.0147 28.2121C78.9974 28.3161 78.9714 28.5068 78.9367 28.7841C78.8674 28.9228 78.824 29.0701 78.8067 29.2261C78.8067 29.3821 78.8067 29.5294 78.8067 29.6681C78.8067 29.8934 78.8154 30.0494 78.8327 30.1361C78.85 30.2054 78.9194 30.2401 79.0407 30.2401C79.2834 30.1881 79.4827 30.1101 79.6387 30.0061C79.812 29.8848 80.0027 29.7288 80.2107 29.5381C80.4707 29.2954 80.696 29.2608 80.8867 29.4341C81.0947 29.5901 81.2247 29.7721 81.2767 29.9801C81.3114 30.0494 81.2767 30.2054 81.1727 30.4481C81.0687 30.6908 80.9474 30.9248 80.8087 31.1501C80.67 31.3754 80.5574 31.4881 80.4707 31.4881C80.4187 31.4881 80.3147 31.5574 80.1587 31.6961C80.0027 31.8348 79.8814 31.9301 79.7947 31.9821C79.6734 32.1034 79.552 32.2161 79.4307 32.3201C79.3267 32.4241 79.2054 32.4761 79.0667 32.4761C78.9974 32.4761 78.9107 32.5021 78.8067 32.5541C78.72 32.5888 78.616 32.6061 78.4947 32.6061C78.3214 32.6581 78.0527 32.6321 77.6887 32.5281C77.342 32.4241 77.1167 32.1814 77.0127 31.8001C76.9434 31.6094 76.8394 31.3668 76.7007 31.0721C76.5794 30.7774 76.5534 30.4134 76.6227 29.9801C76.692 29.6681 76.7354 29.3821 76.7527 29.1221C76.77 28.8621 76.8047 28.6801 76.8567 28.5761C76.8567 28.5241 76.8567 28.4028 76.8567 28.2121C76.8567 28.0041 76.8307 27.9001 76.7787 27.9001C76.7094 27.9001 76.5794 27.9868 76.3887 28.1601C76.198 28.3334 75.9727 28.5674 75.7127 28.8621C75.4527 29.1394 75.184 29.4428 74.9067 29.7721C74.6467 30.1014 74.4127 30.4308 74.2047 30.7601C74.0487 30.9508 73.91 31.1848 73.7887 31.4621C73.6674 31.7394 73.5807 31.8954 73.5287 31.9301C73.4074 32.0688 73.1994 32.0861 72.9047 31.9821C72.6274 31.8781 72.4194 31.7134 72.2807 31.4881C72.2287 31.3841 72.168 31.3234 72.0987 31.3061C72.0294 31.2714 71.9687 31.2194 71.9167 31.1501C71.882 31.0634 71.882 30.8988 71.9167 30.6561C71.9687 30.4134 72.0814 30.0234 72.2547 29.4861C72.4454 28.8968 72.61 28.3681 72.7487 27.9001C72.9047 27.4148 72.9827 27.1721 72.9827 27.1721C72.9827 27.1028 72.8527 27.1721 72.5927 27.3801C72.3327 27.5708 72.0294 27.8134 71.6827 28.1081C71.5267 28.2988 71.3187 28.5414 71.0587 28.8361C70.816 29.1308 70.53 29.4774 70.2007 29.8761C69.8887 30.2748 69.5334 30.7428 69.1347 31.2801C68.632 31.9908 68.2507 32.4241 67.9907 32.5801C67.748 32.7361 67.5314 32.6928 67.3407 32.4501ZM87.5506 32.8921C87.0306 33.1868 86.476 33.3601 85.8866 33.4121C85.3146 33.4468 84.7773 33.3688 84.2746 33.1781C83.772 32.9701 83.3646 32.6668 83.0526 32.2681C82.8793 32.0428 82.7146 31.6874 82.5586 31.2021C82.4026 30.6994 82.3766 30.0234 82.4806 29.1741C82.5846 28.3768 82.8273 27.5708 83.2086 26.7561C83.6073 25.9414 84.0926 25.2221 84.6646 24.5981C85.2366 23.9741 85.8606 23.5494 86.5366 23.3241C86.7793 23.2374 87.022 23.1768 87.2646 23.1421C87.5246 23.0901 87.8626 23.0814 88.2786 23.1161C88.6773 23.1681 89.0326 23.2721 89.3446 23.4281C89.6566 23.5668 89.882 23.7228 90.0206 23.8961C90.298 24.1734 90.48 24.4421 90.5666 24.7021C90.6533 24.9621 90.688 25.2134 90.6706 25.4561C90.584 26.0108 90.3326 26.6088 89.9166 27.2501C89.518 27.8914 88.9546 28.3681 88.2266 28.6801C87.932 28.8014 87.5853 28.8794 87.1866 28.9141C86.788 28.9488 86.242 28.8968 85.5486 28.7581C85.1326 28.6714 84.8553 28.7148 84.7166 28.8881C84.5953 29.0614 84.5433 29.3994 84.5606 29.9021C84.5953 30.2141 84.6646 30.4914 84.7686 30.7341C84.89 30.9594 85.1066 31.1154 85.4186 31.2021C85.8173 31.2714 86.1033 31.2801 86.2766 31.2281C86.45 31.1588 86.6666 31.0634 86.9266 30.9421C87.0653 30.8554 87.1953 30.7601 87.3166 30.6561C87.4553 30.5521 87.5853 30.4481 87.7066 30.3441C87.8453 30.2401 87.958 30.1621 88.0446 30.1101C88.1313 30.0408 88.218 29.9974 88.3046 29.9801C88.3913 29.9628 88.478 29.9541 88.5646 29.9541C88.7553 29.9714 88.9373 30.0754 89.1106 30.2661C89.284 30.4568 89.3966 30.6388 89.4486 30.8121C89.4486 30.9508 89.362 31.1501 89.1886 31.4101C89.0153 31.6528 88.7813 31.9128 88.4866 32.1901C88.2093 32.4501 87.8973 32.6841 87.5506 32.8921ZM87.2126 27.0941C87.334 27.0421 87.5073 26.9208 87.7326 26.7301C87.9753 26.5394 88.192 26.3401 88.3826 26.1321C88.5733 25.9068 88.6686 25.7334 88.6686 25.6121C88.6686 25.4214 88.5386 25.2568 88.2786 25.1181C88.036 24.9794 87.7153 24.9534 87.3166 25.0401C87.178 25.0748 87.0133 25.1701 86.8226 25.3261C86.632 25.4821 86.4413 25.6641 86.2506 25.8721C86.06 26.0628 85.8953 26.2534 85.7566 26.4441C85.618 26.6174 85.5226 26.7561 85.4706 26.8601C85.54 26.9468 85.6786 27.0161 85.8866 27.0681C86.0946 27.1201 86.32 27.1461 86.5626 27.1461C86.8226 27.1461 87.0393 27.1288 87.2126 27.0941ZM93.7902 29.2261C93.3049 29.3128 92.9235 29.1134 92.6462 28.6281C92.3689 28.1254 92.3862 27.2501 92.6982 26.0021C92.8022 25.7941 92.8889 25.5948 92.9582 25.4041C93.0275 25.1961 93.0622 25.0314 93.0622 24.9101C93.1315 24.6848 93.2182 24.4248 93.3222 24.1301C93.4435 23.8181 93.5649 23.5321 93.6862 23.2721C93.8075 22.9948 93.8942 22.8128 93.9462 22.7261C94.0155 22.7261 94.0849 22.6654 94.1542 22.5441C94.2409 22.4228 94.2842 22.3014 94.2842 22.1801C94.2842 22.0414 94.3102 21.8854 94.3622 21.7121C94.4315 21.5388 94.5009 21.4174 94.5702 21.3481C94.5702 21.2614 94.6049 21.1661 94.6742 21.0621C94.7435 20.9581 94.7782 20.8714 94.7782 20.8021C94.7782 20.7328 94.7955 20.6721 94.8302 20.6201C94.8822 20.5681 94.9082 20.5074 94.9082 20.4381C95.0642 20.1608 95.2635 19.7534 95.5062 19.2161C95.7662 18.6614 96.0175 18.0808 96.2602 17.4741C96.5202 16.8674 96.7369 16.3301 96.9102 15.8621C97.0835 15.3941 97.1702 15.1081 97.1702 15.0041C97.2049 14.8654 97.2569 14.7354 97.3262 14.6141C97.3955 14.4928 97.4995 14.4494 97.6382 14.4841C97.7075 14.4321 97.8115 14.4061 97.9502 14.4061C98.0889 14.3888 98.1929 14.3801 98.2622 14.3801C98.2622 14.3801 98.3402 14.4148 98.4962 14.4841C98.6522 14.5534 98.7909 14.6574 98.9122 14.7961C99.0509 14.9174 99.1289 15.0821 99.1462 15.2901C99.1635 15.4981 99.1722 15.7061 99.1722 15.9141C99.1549 16.2434 99.0335 16.6161 98.8082 17.0321C98.5829 17.4481 98.3315 17.9074 98.0542 18.4101C97.8809 18.7394 97.7075 19.0514 97.5342 19.3461C97.3782 19.6408 97.3002 19.8228 97.3002 19.8921C97.3002 19.9614 97.2655 20.0654 97.1962 20.2041C97.1269 20.3428 97.0489 20.5161 96.9622 20.7241C96.8582 20.8974 96.7542 21.1054 96.6502 21.3481C96.5635 21.5908 96.4855 21.8161 96.4162 22.0241C96.3469 22.2148 96.3122 22.3361 96.3122 22.3881C96.2949 22.4574 96.2689 22.5268 96.2342 22.5961C96.2169 22.6654 96.1735 22.7348 96.1042 22.8041C96.0349 22.8041 95.9915 22.8561 95.9742 22.9601C95.9742 23.0468 95.9742 23.0901 95.9742 23.0901C95.9742 23.1594 95.9309 23.3241 95.8442 23.5841C95.7749 23.8268 95.6535 24.1214 95.4802 24.4681C95.1509 25.3868 94.9169 26.1234 94.7782 26.6781C94.6395 27.2154 94.5529 27.6748 94.5182 28.0561C94.4835 28.4721 94.3882 28.7581 94.2322 28.9141C94.0762 29.0528 93.9289 29.1568 93.7902 29.2261ZM92.4122 33.2561C92.0482 33.3948 91.7449 33.4554 91.5022 33.4381C91.2595 33.4381 90.9909 33.3254 90.6962 33.1001C90.3495 32.7534 90.2282 32.4068 90.3322 32.0601C90.4535 31.6961 90.7655 31.3494 91.2682 31.0201C91.6149 30.7948 91.8662 30.6821 92.0222 30.6821C92.1955 30.6648 92.4469 30.7254 92.7762 30.8641C93.3655 31.2281 93.6255 31.6354 93.5562 32.0861C93.4869 32.5194 93.1055 32.9094 92.4122 33.2561Z" fill="#E24E42"/>
<path d="M107.984 22.8365C107.258 23.2341 106.346 22.9671 105.949 22.2403C105.551 21.5135 105.818 20.602 106.545 20.2045L107.984 22.8365ZM191.383 48.1337C191.153 48.9297 190.322 49.3888 189.526 49.1592L176.555 45.4173C175.759 45.1877 175.3 44.3563 175.529 43.5603C175.759 42.7643 176.591 42.3052 177.386 42.5348L188.916 45.861L192.242 34.3311C192.472 33.5352 193.303 33.0761 194.099 33.3057C194.895 33.5353 195.355 34.3667 195.125 35.1627L191.383 48.1337ZM106.545 20.2045C119.886 12.908 131.907 10.8857 142.447 12.0349C152.97 13.1824 161.908 17.4795 169.123 22.6558C176.334 27.8293 181.857 33.9043 185.574 38.6733C187.434 41.0608 188.848 43.1286 189.799 44.6045C190.275 45.3426 190.635 45.9333 190.878 46.3425C191 46.5472 191.092 46.7065 191.155 46.8163C191.187 46.8712 191.211 46.9137 191.227 46.9433C191.236 46.9581 191.242 46.9697 191.247 46.9779C191.249 46.9821 191.251 46.9854 191.252 46.9879C191.253 46.9891 191.253 46.9904 191.254 46.991C191.254 46.992 191.255 46.9928 189.942 47.718C188.629 48.4431 188.629 48.4435 188.629 48.4437C188.629 48.4435 188.629 48.4434 188.629 48.443C188.628 48.4422 188.627 48.4405 188.626 48.438C188.623 48.433 188.618 48.4248 188.612 48.4133C188.599 48.3904 188.579 48.3547 188.551 48.3067C188.497 48.2107 188.412 48.0655 188.299 47.8754C188.073 47.4951 187.732 46.9354 187.277 46.2297C186.367 44.8178 185.005 42.8244 183.207 40.5173C179.607 35.8974 174.284 30.0507 167.374 25.0933C160.468 20.1386 152.011 16.0956 142.122 15.0172C132.248 13.9406 120.838 15.8067 107.984 22.8365L106.545 20.2045Z" fill="#E24E42"/>
</svg>
